<svg xmlns="http://www.w3.org/2000/svg" width="251" height="201" viewBox="0 0 251 201" version="1.1"><path d="M 146.581 66.014 C 140.995 68.196, 135.800 72.794, 133.539 77.560 C 131.479 81.900, 131.615 91.622, 133.792 95.699 C 137.061 101.823, 148.070 109.858, 156.757 112.463 L 159.015 113.139 157.081 109.820 C 156.017 107.994, 154.848 104.865, 154.484 102.866 C 153.902 99.675, 153.401 99.164, 150.370 98.673 C 145.799 97.931, 140.712 94.699, 138.959 91.422 C 137.623 88.928, 137.713 88.640, 140.521 86.391 C 142.160 85.078, 144.908 83.537, 146.628 82.965 C 149.252 82.093, 149.860 81.278, 150.399 77.905 C 150.876 74.923, 152.199 72.760, 155.521 69.531 C 157.984 67.137, 160 64.913, 160 64.589 C 160 63.280, 151.187 64.216, 146.581 66.014 M 169.750 68.080 C 167.287 69.514, 167.449 74.635, 170 76 C 172.948 77.578, 176 75.627, 176 72.165 C 176 67.686, 173.373 65.970, 169.750 68.080 M 156.158 98 C 156.158 99.375, 156.385 99.938, 156.662 99.250 C 156.940 98.563, 156.940 97.438, 156.662 96.750 C 156.385 96.063, 156.158 96.625, 156.158 98 M 125.355 112.500 C 125.352 117.450, 125.521 119.601, 125.731 117.280 C 125.940 114.959, 125.943 110.909, 125.736 108.280 C 125.530 105.651, 125.358 107.550, 125.355 112.500 M 175.300 114 C 175.300 117.025, 175.487 118.263, 175.716 116.750 C 175.945 115.237, 175.945 112.763, 175.716 111.250 C 175.487 109.737, 175.300 110.975, 175.300 114 M 41.813 119.683 C 42.534 119.972, 43.397 119.936, 43.729 119.604 C 44.061 119.272, 43.471 119.036, 42.417 119.079 C 41.252 119.127, 41.015 119.364, 41.813 119.683 M 54.750 119.706 C 55.987 119.944, 58.013 119.944, 59.250 119.706 C 60.487 119.467, 59.475 119.272, 57 119.272 C 54.525 119.272, 53.513 119.467, 54.750 119.706 M 175.328 131.500 C 175.333 135.350, 175.513 136.802, 175.730 134.728 C 175.946 132.653, 175.943 129.503, 175.722 127.728 C 175.501 125.952, 175.324 127.650, 175.328 131.500" stroke="none" fill="#fbb714" fill-rule="evenodd"/><path d="M 156.687 74.805 C 154.762 76.814, 154 78.657, 154 81.305 C 154 84.357, 153.645 85, 151.960 85 C 149.605 85, 142 88.669, 142 89.805 C 142 90.570, 147.052 93.911, 150.117 95.171 C 151.015 95.541, 152.931 95.230, 154.375 94.481 L 157 93.119 157.015 97.809 C 157.039 104.996, 158.102 105.922, 162.488 102.577 C 164.494 101.047, 165.942 99.279, 165.705 98.648 C 163.514 92.806, 163.538 92.746, 167.783 93.463 C 171.413 94.077, 171.955 93.873, 173.883 91.164 C 176.287 87.788, 176.531 85.931, 174.800 84.200 C 173.142 82.542, 167.785 82.695, 165.441 84.468 C 162.494 86.697, 162.088 86.325, 163.268 82.478 C 164.141 79.635, 164.029 78.285, 162.691 75.478 C 161.779 73.565, 160.659 72, 160.203 72 C 159.747 72, 158.165 73.262, 156.687 74.805 M 47.282 104.515 C 45.861 105.510, 45.013 107.312, 44.809 109.765 C 44.561 112.762, 44.055 113.563, 42.250 113.820 C 40.642 114.048, 40 114.813, 40 116.500 C 40 118.187, 40.642 118.952, 42.250 119.180 C 44.374 119.482, 44.516 120.020, 44.788 128.750 L 45.075 138 48.500 138 L 51.925 138 52.212 128.750 L 52.500 119.500 62.813 119.214 L 73.126 118.929 72.813 116.214 L 72.500 113.500 62.866 113.843 C 53.112 114.190, 51.427 113.656, 52.604 110.590 C 53.105 109.285, 54.986 109, 63.107 109 L 73 109 73 106 L 73 103 61.223 103 C 52.320 103, 48.917 103.370, 47.282 104.515 M 81 105.973 L 81 108.947 95.750 109.223 C 110.189 109.494, 110.507 109.547, 110.820 111.750 C 111.138 113.989, 111.071 114, 97.524 114 C 84.402 114, 83.820 114.089, 81.455 116.455 C 78.861 119.048, 78.379 122.237, 79.955 126.381 C 81.413 130.216, 86.395 131.152, 103.500 130.805 L 118.500 130.500 118.819 124 C 118.994 120.425, 118.846 115.109, 118.489 112.187 C 117.931 107.617, 117.397 106.603, 114.670 104.940 C 111.903 103.253, 109.560 103.007, 96.250 103.004 L 81 103 81 105.973 M 126 112.953 C 126 129.550, 126.913 130.336, 146.750 130.832 L 161 131.188 161 127.094 L 161 123 148.557 123 C 133.313 123, 133 122.754, 133 110.777 L 133 103 129.500 103 L 126 103 126 112.953 M 168 120.500 L 168 138 171.500 138 L 175 138 175 131.500 L 175 125 188.550 125 C 206.795 125, 210 123.325, 210 113.788 C 210 104.541, 206.281 103.014, 183.750 103.006 L 168 103 168 120.500 M 175 114 L 175 119 187.965 119 C 199.759 119, 201.023 118.825, 201.965 117.066 C 203.417 114.353, 203.255 112.398, 201.429 110.571 C 200.169 109.311, 197.394 109, 187.429 109 L 175 109 175 114 M 87.105 120.373 C 86.478 121.129, 86.246 122.479, 86.590 123.373 C 87.118 124.749, 89.046 125, 99.107 125 L 111 125 111 122 L 111 119 99.622 119 C 91.196 119, 87.949 119.356, 87.105 120.373" stroke="none" fill="#0c5095" fill-rule="evenodd"/><path d="M 0 100.504 L 0 201.008 125.750 200.754 L 251.500 200.500 251.755 100.250 L 252.010 0 126.005 0 L 0 0 0 100.504 M 0.481 101 C 0.481 156.275, 0.602 178.887, 0.750 151.250 C 0.898 123.612, 0.898 78.387, 0.750 50.750 C 0.602 23.112, 0.481 45.725, 0.481 101 M 146.581 66.014 C 140.995 68.196, 135.800 72.794, 133.539 77.560 C 131.479 81.900, 131.615 91.622, 133.792 95.699 C 137.061 101.823, 148.070 109.858, 156.757 112.463 L 159.015 113.139 157.081 109.820 C 156.017 107.994, 154.848 104.865, 154.484 102.866 C 153.902 99.675, 153.401 99.164, 150.370 98.673 C 145.799 97.931, 140.712 94.699, 138.959 91.422 C 137.623 88.928, 137.713 88.640, 140.521 86.391 C 142.160 85.078, 144.908 83.537, 146.628 82.965 C 149.252 82.093, 149.860 81.278, 150.399 77.905 C 150.876 74.923, 152.199 72.760, 155.521 69.531 C 157.984 67.137, 160 64.913, 160 64.589 C 160 63.280, 151.187 64.216, 146.581 66.014 M 169.750 68.080 C 167.287 69.514, 167.449 74.635, 170 76 C 172.948 77.578, 176 75.627, 176 72.165 C 176 67.686, 173.373 65.970, 169.750 68.080 M 156.687 74.805 C 154.762 76.814, 154 78.657, 154 81.305 C 154 84.629, 153.736 85, 151.368 85 C 148.769 85, 142 88.510, 142 89.858 C 142 90.240, 143.912 91.798, 146.250 93.320 C 150.354 95.991, 151.336 96.114, 155.365 94.462 C 156.940 93.817, 157.124 94.035, 156.543 95.864 C 155.798 98.213, 157.624 105, 159.001 105 C 160.590 105, 166.111 99.732, 165.692 98.615 C 163.643 93.149, 163.665 93.101, 168.128 93.306 C 171.913 93.480, 172.600 93.142, 174.687 90.089 C 176.821 86.966, 176.885 86.530, 175.444 84.938 C 173.021 82.261, 170.386 82.019, 166.307 84.098 C 164.256 85.144, 162.489 86, 162.382 86 C 162.275 86, 162.674 84.415, 163.268 82.478 C 164.141 79.635, 164.029 78.285, 162.691 75.478 C 161.779 73.565, 160.659 72, 160.203 72 C 159.747 72, 158.165 73.262, 156.687 74.805 M 47.282 104.515 C 45.861 105.510, 45.013 107.312, 44.809 109.765 C 44.559 112.793, 44.063 113.562, 42.191 113.827 C 38.961 114.285, 39.433 119.349, 42.750 119.820 C 44.892 120.124, 45 120.570, 45 129.070 L 45 138 48.500 138 L 52 138 52 129.145 L 52 120.289 58.750 119.652 C 62.462 119.301, 67.188 119.011, 69.250 119.007 C 72.761 119, 73 118.806, 73 115.954 L 73 112.908 63.141 113.587 C 52.891 114.293, 50.474 113.544, 53.036 110.456 C 53.937 109.371, 56.632 109, 63.622 109 L 73 109 73 106 L 73 103 61.223 103 C 52.320 103, 48.917 103.370, 47.282 104.515 M 81 106 L 81 109 94.418 109 C 109.225 109, 111 109.333, 111 112.107 C 111 113.871, 110.078 114, 97.455 114 C 84.406 114, 83.819 114.090, 81.455 116.455 C 76.844 121.065, 78.962 128.965, 85.225 130.511 C 86.476 130.820, 94.475 130.944, 103 130.786 L 118.500 130.500 118.804 122 C 119.229 110.129, 118.548 107.305, 114.696 104.956 C 111.898 103.250, 109.602 103.007, 96.250 103.004 L 81 103 81 106 M 125.348 104.536 C 125.024 105.380, 124.949 109.993, 125.182 114.786 C 125.895 129.446, 128.096 131, 148.149 131 L 161 131 161 127 L 161 123 148.622 123 C 133.572 123, 133.642 123.052, 133.147 111.347 L 132.795 103 129.366 103 C 127.205 103, 125.719 103.568, 125.348 104.536 M 168 120.500 L 168 138 172 138 L 176 138 176 131.500 L 176 125 189.050 125 C 206.639 125, 210 123.235, 210 114 C 210 104.417, 206.718 103, 184.532 103 L 168 103 168 120.500 M 176 114 L 176 119 188.525 119 L 201.050 119 202.051 116.365 C 202.813 114.362, 202.681 113.163, 201.504 111.365 C 200.017 109.096, 199.467 109, 187.977 109 L 176 109 176 114 M 87 120.500 C 86.007 121.697, 86.007 122.303, 87 123.500 C 87.973 124.672, 90.729 125, 99.622 125 L 111 125 111 122 L 111 119 99.622 119 C 90.729 119, 87.973 119.328, 87 120.500" stroke="none" fill="#fbfbfb" fill-rule="evenodd"/></svg>